<svg width="20" height="20" viewBox="0 0 20 20" fill="none" xmlns="http://www.w3.org/2000/svg">
<path d="M14.1859 2.52831L13.3904 2.31636C11.1405 1.71688 10.0155 1.41714 9.12926 1.92594C8.24297 2.43474 7.94153 3.55338 7.33866 5.79067L6.48606 8.95466C5.88317 11.1919 5.58174 12.3106 6.09342 13.1918C6.60511 14.0732 7.7301 14.3728 9.98009 14.9723L10.7756 15.1843C13.0255 15.7837 14.1505 16.0835 15.0368 15.5747C15.923 15.0659 16.2245 13.9472 16.8273 11.71L17.6799 8.54599C18.2828 6.3087 18.5843 5.19006 18.0726 4.30879C17.5609 3.42753 16.4359 3.12778 14.1859 2.52831Z" stroke="#6A59CE" stroke-width="1.5"/>
<path d="M14.0449 6.19417C14.0449 6.87257 13.4918 7.42253 12.8096 7.42253C12.1273 7.42253 11.5742 6.87257 11.5742 6.19417C11.5742 5.51577 12.1273 4.96582 12.8096 4.96582C13.4918 4.96582 14.0449 5.51577 14.0449 6.19417Z" stroke="#6A59CE" stroke-width="1.5"/>
<path d="M10.0003 17.4549L9.20674 17.671C6.96202 18.2822 5.83968 18.5879 4.95549 18.0691C4.0713 17.5503 3.77057 16.4097 3.1691 14.1286L2.31851 10.9025C1.71704 8.62133 1.41631 7.48075 1.9268 6.58219C2.36839 5.80492 3.33366 5.83322 4.58366 5.83312" stroke="#6A59CE" stroke-width="1.5" stroke-linecap="round"/>
</svg>
