<svg width="32" height="32" viewBox="0 0 32 32" fill="none" xmlns="http://www.w3.org/2000/svg">
<rect width="32" height="32" rx="14.5455" fill="#F0F2F5"/>
<g clip-path="url(#clip0_15769_1616)">
<path fill-rule="evenodd" clip-rule="evenodd" d="M15.9999 11.2727C15.1118 11.2729 14.2417 11.5232 13.4894 11.9951C12.737 12.4669 12.1327 13.1412 11.7458 13.9405C11.359 14.7399 11.2051 15.6321 11.3018 16.515C11.3986 17.3978 11.7421 18.2355 12.2929 18.9321C12.8438 19.6287 13.5797 20.1561 14.4164 20.4537C15.2531 20.7514 16.1568 20.8074 17.0238 20.6152C17.8909 20.4231 18.6863 19.9905 19.3189 19.3672C19.9515 18.7439 20.3957 17.955 20.6006 17.0908H16.7272C16.4379 17.0908 16.1604 16.9759 15.9558 16.7713C15.7512 16.5667 15.6363 16.2893 15.6363 15.9999C15.6363 15.7106 15.7512 15.4331 15.9558 15.2285C16.1604 15.024 16.4379 14.909 16.7272 14.909H21.8181C22.1074 14.909 22.3849 15.024 22.5895 15.2285C22.7941 15.4331 22.909 15.7106 22.909 15.9999C22.909 17.5976 22.3553 19.1458 21.3422 20.3812C20.3291 21.6165 18.9192 22.4626 17.3525 22.7753C15.7857 23.0881 14.159 22.8482 12.7493 22.0965C11.3395 21.3449 10.2338 20.1279 9.62039 18.6527C9.00697 17.1775 8.92375 15.5353 9.38489 14.0057C9.84603 12.476 10.823 11.1535 12.1496 10.2632C13.4761 9.37282 15.0702 8.96972 16.6606 9.12249C18.2509 9.27526 19.7391 9.97444 20.8719 11.101C20.9735 11.2021 21.0542 11.3221 21.1093 11.4544C21.1645 11.5866 21.1931 11.7284 21.1935 11.8717C21.1938 12.0149 21.166 12.1569 21.1115 12.2894C21.057 12.4219 20.977 12.5424 20.8759 12.6439C20.7749 12.7455 20.6548 12.8262 20.5226 12.8814C20.3904 12.9365 20.2486 12.9651 20.1053 12.9655C19.8159 12.9662 19.5381 12.852 19.333 12.6479C18.895 12.211 18.3752 11.8646 17.8033 11.6287C17.2314 11.3927 16.6186 11.2717 15.9999 11.2727Z" fill="#202D3D"/>
</g>
<defs>
<clipPath id="clip0_15769_1616">
<rect width="17.4545" height="17.4545" fill="white" transform="translate(7.27246 7.27246)"/>
</clipPath>
</defs>
</svg>
