<svg width="32" height="32" viewBox="0 0 32 32" fill="none" xmlns="http://www.w3.org/2000/svg">
<rect width="32" height="32" rx="14.5455" fill="#F0F2F5"/>
<g clip-path="url(#clip0_15769_1621)">
<path d="M16.7735 12.1339L17.3153 11.9113C17.7553 11.7368 18.3241 11.5586 18.9953 11.6713C20.3706 11.9026 21.319 12.6452 21.8841 13.6299C22.1022 14.0095 21.9262 14.5099 21.519 14.6692C21.1701 14.8056 20.8718 15.0465 20.665 15.3589C20.4582 15.6713 20.3528 16.04 20.3634 16.4145C20.374 16.789 20.5 17.1511 20.7241 17.4513C20.9483 17.7515 21.2596 17.9751 21.6157 18.0917C21.9924 18.2153 22.2048 18.6335 22.0812 19.0102C21.7597 19.9862 21.2972 20.8873 20.7495 21.6146C20.2084 22.3332 19.5481 22.9295 18.8128 23.2212C18.3328 23.4102 17.8179 23.3397 17.3255 23.2175L17.0332 23.1397L16.599 23.0139C16.4019 22.9564 16.199 22.907 15.9997 22.907C15.7997 22.907 15.5975 22.9564 15.4004 23.0139L14.9663 23.1397L14.6739 23.2175C14.1815 23.3397 13.6659 23.411 13.1866 23.2212C12.2608 22.8546 11.4441 21.9993 10.8266 20.9906C10.1582 19.8798 9.71713 18.6472 9.52916 17.3644C9.36407 16.2342 9.45352 14.9652 9.97643 13.8917C10.5146 12.7855 11.5008 11.9244 13.0041 11.6713C13.615 11.5688 14.1401 11.7062 14.5604 11.8641L14.8012 11.9586L15.2259 12.1339C15.5168 12.2481 15.7459 12.315 15.9997 12.315C16.2528 12.315 16.4826 12.2481 16.7735 12.1339ZM15.831 9.28516C16.5408 8.57461 17.631 8.51352 17.8877 8.77097C18.1452 9.0277 18.0841 10.1179 17.3735 10.8277C16.6637 11.5375 15.5735 11.5986 15.3168 11.3419C15.0593 11.0852 15.1204 9.99497 15.831 9.28516Z" fill="#001429"/>
</g>
<defs>
<clipPath id="clip0_15769_1621">
<rect width="17.4545" height="17.4545" fill="white" transform="translate(7.27246 7.27246)"/>
</clipPath>
</defs>
</svg>
