<svg width="16" height="16" viewBox="0 0 16 16" fill="none" xmlns="http://www.w3.org/2000/svg">
<g clip-path="url(#clip0_15922_1142)">
<path fill-rule="evenodd" clip-rule="evenodd" d="M12.6663 2C13.1968 2 13.7055 2.21071 14.0806 2.58579C14.4556 2.96086 14.6663 3.46957 14.6663 4V10.6667C14.6663 11.1971 14.4556 11.7058 14.0806 12.0809C13.7055 12.456 13.1968 12.6667 12.6663 12.6667H4.88834L2.66634 14.3333C2.11701 14.7453 1.33301 14.3533 1.33301 13.6667V4C1.33301 3.46957 1.54372 2.96086 1.91879 2.58579C2.29387 2.21071 2.80257 2 3.33301 2H12.6663ZM7.33301 8H5.33301C5.1562 8 4.98663 8.07024 4.8616 8.19526C4.73658 8.32029 4.66634 8.48986 4.66634 8.66667C4.66634 8.84348 4.73658 9.01305 4.8616 9.13807C4.98663 9.26309 5.1562 9.33333 5.33301 9.33333H7.33301C7.50982 9.33333 7.67939 9.26309 7.80441 9.13807C7.92944 9.01305 7.99967 8.84348 7.99967 8.66667C7.99967 8.48986 7.92944 8.32029 7.80441 8.19526C7.67939 8.07024 7.50982 8 7.33301 8ZM10.6663 5.33333H5.33301C5.16309 5.33352 4.99965 5.39859 4.8761 5.51523C4.75254 5.63188 4.67818 5.7913 4.66823 5.96093C4.65827 6.13056 4.71346 6.29759 4.82252 6.42789C4.93158 6.55819 5.08628 6.64193 5.25501 6.662L5.33301 6.66667H10.6663C10.8363 6.66648 10.9997 6.60141 11.1233 6.48477C11.2468 6.36812 11.3212 6.2087 11.3311 6.03907C11.3411 5.86944 11.2859 5.70241 11.1768 5.57211C11.0678 5.44181 10.9131 5.35807 10.7443 5.338L10.6663 5.33333Z" fill="#8E8E8E"/>
</g>
<defs>
<clipPath id="clip0_15922_1142">
<rect width="16" height="16" fill="white"/>
</clipPath>
</defs>
</svg>
