<svg width="16" height="16" viewBox="0 0 16 16" fill="none" xmlns="http://www.w3.org/2000/svg">
<path d="M2 11.6663C2 10.73 2 10.2619 2.22471 9.92554C2.32199 9.78001 2.44699 9.65501 2.59257 9.55767C2.92887 9.33301 3.39703 9.33301 4.33333 9.33301C5.26964 9.33301 5.73779 9.33301 6.07409 9.55767C6.21968 9.65501 6.34468 9.78001 6.44196 9.92554C6.66667 10.2619 6.66667 10.73 6.66667 11.6663C6.66667 12.6026 6.66667 13.0708 6.44196 13.4071C6.34468 13.5527 6.21968 13.6777 6.07409 13.7749C5.73779 13.9997 5.26964 13.9997 4.33333 13.9997C3.39703 13.9997 2.92887 13.9997 2.59257 13.7749C2.44699 13.6777 2.32199 13.5527 2.22471 13.4071C2 13.0708 2 12.6026 2 11.6663Z" stroke="#8E8E8E" stroke-width="1.5" stroke-linejoin="round"/>
<path d="M9.46836 12.3194C8.77756 11.6286 8.43216 11.2832 8.35556 10.8678C8.32549 10.7049 8.32549 10.5379 8.35556 10.375C8.43216 9.95957 8.77756 9.61424 9.46836 8.92344C10.1592 8.23264 10.5046 7.88724 10.92 7.81064C11.0828 7.78057 11.2499 7.78057 11.4128 7.81064C11.8282 7.88724 12.1736 8.23264 12.8644 8.92344C13.5552 9.61424 13.9006 9.95957 13.9772 10.375C14.0072 10.5379 14.0072 10.7049 13.9772 10.8678C13.9006 11.2832 13.5552 11.6286 12.8644 12.3194C12.1736 13.0102 11.8282 13.3556 11.4128 13.4322C11.2499 13.4622 11.0828 13.4622 10.92 13.4322C10.5046 13.3556 10.1592 13.0102 9.46836 12.3194Z" stroke="#8E8E8E" stroke-width="1.5" stroke-linejoin="round"/>
<path d="M5.0895 3.84986C5.41867 2.94548 5.58325 2.4933 5.91968 2.24883C6.06103 2.14612 6.22084 2.0716 6.39038 2.02934C6.79393 1.92876 7.24606 2.09334 8.15046 2.42251C9.05486 2.75168 9.50706 2.91626 9.75153 3.25269C9.85419 3.39404 9.92873 3.55385 9.97099 3.72338C10.0716 4.12691 9.90699 4.5791 9.57779 5.48348C9.24866 6.38785 9.08406 6.84002 8.74766 7.08449C8.60626 7.18722 8.44646 7.26176 8.27693 7.30402C7.87339 7.40456 7.42126 7.24002 6.51685 6.91082C5.61248 6.58166 5.16029 6.41708 4.91582 6.08065C4.81311 5.9393 4.73859 5.77949 4.69633 5.60995C4.59575 5.20642 4.76033 4.75424 5.0895 3.84986Z" stroke="#8E8E8E" stroke-width="1.5" stroke-linejoin="round"/>
</svg>
