<svg width="12" height="13" viewBox="0 0 12 13" fill="none" xmlns="http://www.w3.org/2000/svg">
<path fill-rule="evenodd" clip-rule="evenodd" d="M0 4.33333C0 3.18406 0.456546 2.08186 1.2692 1.2692C2.08186 0.456546 3.18406 0 4.33333 0H7.66667C8.81594 0 9.91814 0.456546 10.7308 1.2692C11.5435 2.08186 12 3.18406 12 4.33333V8.33333C12 8.9024 11.8879 9.46588 11.6701 9.99163C11.4524 10.5174 11.1332 10.9951 10.7308 11.3975C10.3284 11.7998 9.85071 12.119 9.32496 12.3368C8.79922 12.5546 8.23573 12.6667 7.66667 12.6667H4.33333C3.18406 12.6667 2.08186 12.2101 1.2692 11.3975C0.456546 10.5848 0 9.4826 0 8.33333V4.33333ZM6 1.33333C4.94667 1.33333 4.02133 1.47667 3.38267 1.68933C3.06467 1.796 2.85267 1.90733 2.73267 2C2.85267 2.09333 3.06467 2.20467 3.38267 2.31067C4.02133 2.524 4.94667 2.66667 6 2.66667C7.05333 2.66667 7.978 2.52333 8.61733 2.31067C8.93533 2.204 9.14733 2.09267 9.26733 2C9.14733 1.90667 8.93533 1.79533 8.61733 1.68933C7.978 1.476 7.05333 1.33333 6 1.33333Z" fill="#8E8E8E"/>
</svg>
