<svg width="126" height="35" viewBox="0 0 126 35" fill="none" xmlns="http://www.w3.org/2000/svg">
<path d="M0 34.1797V12.5H0.439453L6.88477 27.9785V34.1797H0ZM0 4.49219V0H5.37109L14.6973 22.6074L19.873 10.9375H20.3613V26.8066L17.0898 34.1797H12.3535L0 4.49219ZM22.998 34.1797V0H29.8828V34.1797H22.998ZM33.4961 34.1797L39.7949 5.76172H40.5273L43.457 19.4336L40.2344 34.1797H33.4961ZM43.8965 30.0293L45.3613 23.291H47.1191L41.9434 0H48.7305L56.7871 34.1797H49.9512L48.9746 30.0293H43.8965ZM59.7656 34.1797V10.1562H60.1562L66.6504 20.6055V34.1797H59.7656ZM59.7656 4.49219V0H65.3809L81.4941 25.9766V34.1797H78.2227L59.7656 4.49219ZM74.6094 9.86328V0H81.4941V20.3125H81.1035L74.6094 9.86328ZM85.5957 34.1797V0H103.369V6.83594H92.4805V13.7695H98.7793V20.6543H92.4805V27.2949H103.369V34.1797H85.5957ZM107.275 34.1797V0H125.049V6.83594H114.16V13.7695H120.459V20.6543H114.16V27.2949H125.049V34.1797H107.275Z" fill="#F3A218"/>
</svg>
